<svg width="54" height="53" viewBox="0 0 54 53" fill="none" xmlns="http://www.w3.org/2000/svg">
<g clip-path="url(#clip0_2829_307)">
<g filter="url(#filter0_d_2829_307)">
<path d="M26.8125 47C39.2389 47 49.3125 36.9264 49.3125 24.5C49.3125 12.0736 39.2389 2 26.8125 2C14.3861 2 4.3125 12.0736 4.3125 24.5C4.3125 36.9264 14.3861 47 26.8125 47Z" fill="white"/>
<path fill-rule="evenodd" clip-rule="evenodd" d="M30.2497 24.5C30.2497 22.6068 28.7057 21.0628 26.8125 21.0628C24.9193 21.0628 23.3753 22.6068 23.3753 24.5C23.3753 26.3932 24.9193 27.9372 26.8125 27.9372C28.7057 27.9372 30.2497 26.3932 30.2497 24.5ZM32.1026 24.5C32.1026 27.427 29.7395 29.7901 26.8125 29.7901C23.8855 29.7901 21.5224 27.427 21.5224 24.5C21.5224 21.573 23.8855 19.2099 26.8125 19.2099C29.7395 19.2099 32.1026 21.573 32.1026 24.5ZM33.5527 18.9951C33.5527 19.6798 33.0022 20.2303 32.3174 20.2303C31.6327 20.2303 31.0822 19.6798 31.0822 18.9951C31.0822 18.3103 31.6327 17.7598 32.3174 17.7598C33.0022 17.7598 33.5527 18.3103 33.5527 18.9951ZM26.8125 16.0412C25.3087 16.0412 22.0863 15.9204 20.7302 16.4574C20.2603 16.6454 19.9112 16.8737 19.5487 17.2362C19.1862 17.5987 18.9579 17.9478 18.7699 18.4177C18.2329 19.7738 18.3537 22.9962 18.3537 24.5C18.3537 26.0038 18.2329 29.2262 18.7699 30.5823C18.9579 31.0522 19.1862 31.4013 19.5487 31.7638C19.9112 32.1263 20.2603 32.3546 20.7302 32.5426C22.0863 33.0796 25.3087 32.9588 26.8125 32.9588C28.3163 32.9588 31.5387 33.0796 32.8948 32.5426C33.3647 32.3546 33.7138 32.1263 34.0763 31.7638C34.4388 31.4013 34.6671 31.0522 34.8551 30.5823C35.3921 29.2262 35.2713 26.0038 35.2713 24.5C35.2713 22.9962 35.3921 19.7738 34.8551 18.4177C34.6671 17.9478 34.4388 17.5987 34.0763 17.2362C33.7138 16.8737 33.3647 16.6454 32.8948 16.4574C31.5387 15.9204 28.3163 16.0412 26.8125 16.0412ZM37.1242 24.5C37.1242 25.9232 37.1376 27.333 37.057 28.7562C36.9765 30.4077 36.6005 31.8712 35.3921 33.0796C34.1837 34.288 32.7202 34.664 31.0687 34.7445C29.6455 34.8251 28.2357 34.8117 26.8125 34.8117C25.3893 34.8117 23.9795 34.8251 22.5563 34.7445C20.9048 34.664 19.4413 34.288 18.2329 33.0796C17.0245 31.8712 16.6485 30.4077 16.568 28.7562C16.4874 27.333 16.5008 25.9232 16.5008 24.5C16.5008 23.0768 16.4874 21.667 16.568 20.2438C16.6485 18.5923 17.0245 17.1288 18.2329 15.9204C19.4413 14.712 20.9048 14.336 22.5563 14.2555C23.9795 14.1749 25.3893 14.1883 26.8125 14.1883C28.2357 14.1883 29.6455 14.1749 31.0687 14.2555C32.7202 14.336 34.1837 14.712 35.3921 15.9204C36.6005 17.1288 36.9765 18.5923 37.057 20.2438C37.1376 21.667 37.1242 23.0768 37.1242 24.5Z" fill="#0072FF"/>
</g>
</g>
<defs>
<filter id="filter0_d_2829_307" x="0.3125" y="0" width="53" height="53" filterUnits="userSpaceOnUse" color-interpolation-filters="sRGB">
<feFlood flood-opacity="0" result="BackgroundImageFix"/>
<feColorMatrix in="SourceAlpha" type="matrix" values="0 0 0 0 0 0 0 0 0 0 0 0 0 0 0 0 0 0 127 0" result="hardAlpha"/>
<feOffset dy="2"/>
<feGaussianBlur stdDeviation="2"/>
<feColorMatrix type="matrix" values="0 0 0 0 0 0 0 0 0 0 0 0 0 0 0 0 0 0 0.5 0"/>
<feBlend mode="normal" in2="BackgroundImageFix" result="effect1_dropShadow_2829_307"/>
<feBlend mode="normal" in="SourceGraphic" in2="effect1_dropShadow_2829_307" result="shape"/>
</filter>
<clipPath id="clip0_2829_307">
<rect width="54" height="53" fill="white"/>
</clipPath>
</defs>
</svg>
