<svg width="53" height="53" viewBox="0 0 53 53" fill="none" xmlns="http://www.w3.org/2000/svg">
<g clip-path="url(#clip0_2829_286)">
<g filter="url(#filter0_d_2829_286)">
<path d="M26.5 47C38.9264 47 49 36.9264 49 24.5C49 12.0736 38.9264 2 26.5 2C14.0736 2 4 12.0736 4 24.5C4 36.9264 14.0736 47 26.5 47Z" fill="white"/>
<path fill-rule="evenodd" clip-rule="evenodd" d="M23.9272 27.9033L30.0041 24.7411L23.9272 21.5409V27.9033ZM26.25 17C30.9835 17 34.1224 17.2277 34.1224 17.2277C34.5619 17.2783 35.5286 17.2783 36.3824 18.189C36.3824 18.189 37.073 18.872 37.2739 20.4405C37.5124 22.2746 37.4999 24.1086 37.4999 24.1086V25.8289C37.4999 25.8289 37.5124 27.6629 37.2739 29.497C37.073 31.0528 36.3824 31.7485 36.3824 31.7485C35.5286 32.6466 34.5619 32.6466 34.1224 32.6972C34.1224 32.6972 30.9835 32.9375 26.25 32.9375C20.3991 32.8869 18.6036 32.7098 18.6036 32.7098C18.1014 32.6213 16.9714 32.6466 16.1176 31.7485C16.1176 31.7485 15.427 31.0528 15.2261 29.497C14.9876 27.6629 15.0001 25.8289 15.0001 25.8289V24.1086C15.0001 24.1086 14.9876 22.2746 15.2261 20.4405C15.427 18.872 16.1176 18.189 16.1176 18.189C16.9714 17.2783 17.9381 17.2783 18.3776 17.2277C18.3776 17.2277 21.5165 17 26.25 17Z" fill="#0072FF"/>
</g>
</g>
<defs>
<filter id="filter0_d_2829_286" x="0" y="0" width="53" height="53" filterUnits="userSpaceOnUse" color-interpolation-filters="sRGB">
<feFlood flood-opacity="0" result="BackgroundImageFix"/>
<feColorMatrix in="SourceAlpha" type="matrix" values="0 0 0 0 0 0 0 0 0 0 0 0 0 0 0 0 0 0 127 0" result="hardAlpha"/>
<feOffset dy="2"/>
<feGaussianBlur stdDeviation="2"/>
<feColorMatrix type="matrix" values="0 0 0 0 0 0 0 0 0 0 0 0 0 0 0 0 0 0 0.5 0"/>
<feBlend mode="normal" in2="BackgroundImageFix" result="effect1_dropShadow_2829_286"/>
<feBlend mode="normal" in="SourceGraphic" in2="effect1_dropShadow_2829_286" result="shape"/>
</filter>
<clipPath id="clip0_2829_286">
<rect width="53" height="53" fill="white"/>
</clipPath>
</defs>
</svg>
